# File created by Blade
# Date/Time:  Tue Apr 07 20:45:29 2015
#---------------------------------------------------------
:version 1.10
:name HOM
:units
  mass 1.0
  length 1.000000
  angle deg
:documentation
     Acclaim Skeleton File
:root
   axis xyz
   order TX TY TZ RX RY RZ
   position 0.000000 0.000000 0.000000
   orientation 0 0 0
:bonedata
   begin
      id 1
      name Spine_dum
      direction 0.000000 1.000000 0.000000
      length 4.885285
      axis 0.0 0.0 0.0 xyz
   end
   begin
      id 2
      name LeftUpLeg_dum
      direction 1.000000 0.000000 0.000000
      length 2.672193
      axis 0.0 0.0 0.0 xyz
   end
   begin
      id 3
      name RightUpLeg_dum
      direction -1.000000 0.000000 0.000000
      length 2.672193
      axis 0.0 0.0 0.0 xyz
   end
   begin
      id 4
      name Spine
      direction 0.000000 1.000000 0.000000
      length 0.000000
      axis 0.0 0.0 0.0 xyz
      dof rx ry rz
   end
   begin
      id 5
      name Spine_dum1
      direction 0.000000 1.000000 0.000000
      length 16.494159
      axis 0.0 0.0 0.0 xyz
   end
   begin
      id 6
      name Spine_dum2
      direction 0.000000 1.000000 0.000000
      length 10.663448
      axis 0.0 0.0 0.0 xyz
   end
   begin
      id 7
      name Spine_dum3
      direction 0.000000 1.000000 0.000000
      length 10.663448
      axis 0.0 0.0 0.0 xyz
   end
   begin
      id 8
      name Head
      direction 0.000000 1.000000 0.000000
      length 4.527550
      axis 0.0 0.0 0.0 xyz
      dof rx ry rz
   end
   begin
      id 9
      name LeftShoulder
      direction 1.000000 0.000000 0.000000
      length 7.531907
      axis 0.0 0.0 -90.0 xyz
      dof rx ry rz
   end
   begin
      id 10
      name LeftArm
      direction 1.000000 0.000000 0.000000
      length 10.229199
      axis 0.0 0.0 -90.0 xyz
      dof rx ry rz
   end
   begin
      id 11
      name LeftForeArm
      direction 1.000000 0.000000 0.000000
      length 8.673495
      axis 0.0 0.0 -90.0 xyz
      dof ry rz rx
   end
   begin
      id 12
      name LeftHand
      direction 0.000000 0.000000 0.000000
      length 0.000000
      axis 0.0 0.0 -90.0 xyz
      dof rx ry rz
   end
   begin
      id 13
      name LeftHand_dum1
      direction 0.000000 0.000000 0.000000
      length 0.000000
      axis 0.0 0.0 -90.0 xyz
   end
   begin
      id 14
      name LeftHand_dum2
      direction 1.000000 0.000000 0.000000
      length 3.937000
      axis 0.0 0.0 -90.0 xyz
   end
   begin
      id 15
      name LeftHandThumb1
      direction 0.000000 0.000000 1.000000
      length 3.937000
      axis 0.0 0.0 -90.0 xyz
      dof rx rz ry
   end
   begin
      id 16
      name RightShoulder
      direction -1.000000 0.000000 0.000000
      length 7.531907
      axis 0.0 0.0 90.0 xyz
      dof rx ry rz
   end
   begin
      id 17
      name RightArm
      direction -1.000000 0.000000 0.000000
      length 10.229199
      axis 0.0 0.0 90.0 xyz
      dof rx ry rz
   end
   begin
      id 18
      name RightForeArm
      direction -1.000000 0.000000 0.000000
      length 8.673495
      axis 0.0 0.0 90.0 xyz
      dof ry rz rx
   end
   begin
      id 19
      name RightHand
      direction 0.000000 0.000000 0.000000
      length 0.000000
      axis 0.0 0.0 90.0 xyz
      dof rx ry rz
   end
   begin
      id 20
      name RightHand_dum1
      direction 0.000000 0.000000 0.000000
      length 0.000000
      axis 0.0 0.0 90.0 xyz
   end
   begin
      id 21
      name RightHand_dum2
      direction -1.000000 0.000000 0.000000
      length 3.937000
      axis 0.0 0.0 90.0 xyz
   end
   begin
      id 22
      name RightHandThumb1
      direction 0.000000 0.000000 1.000000
      length 3.937000
      axis 0.0 0.0 90.0 xyz
      dof rx rz ry
   end
   begin
      id 23
      name LeftUpLeg
      direction 0.000000 -1.000000 0.000000
      length 16.263388
      axis 0.0 0.0 0.0 xyz
      dof rx ry rz
   end
   begin
      id 24
      name LeftLeg
      direction 0.000000 -1.000000 0.000000
      length 14.328163
      axis 0.0 0.0 0.0 xyz
      dof rx ry rz
   end
   begin
      id 25
      name LeftFoot
      direction 0.000000 -0.258819 0.965926
      length 5.031290
      axis 15.0 0.0 0.0 xyz
      dof rx ry rz
   end
   begin
      id 26
      name LeftToeBase
      direction 0.000000 0.000000 1.000000
      length 2.952750
      axis 0.0 0.0 0.0 xyz
      dof rx ry rz
   end
   begin
      id 27
      name RightUpLeg
      direction 0.000000 -1.000000 0.000000
      length 16.263388
      axis 0.0 0.0 0.0 xyz
      dof rx ry rz
   end
   begin
      id 28
      name RightLeg
      direction 0.000000 -1.000000 0.000000
      length 14.328163
      axis 0.0 0.0 0.0 xyz
      dof rx ry rz
   end
   begin
      id 29
      name RightFoot
      direction 0.000000 -0.258819 0.965926
      length 5.031290
      axis 15.0 0.0 0.0 xyz
      dof rx ry rz
   end
   begin
      id 30
      name RightToeBase
      direction 0.000000 0.000000 1.000000
      length 2.952750
      axis 0.0 0.0 0.0 xyz
      dof rx ry rz
   end
:hierarchy
   begin
      root Spine_dum LeftUpLeg_dum RightUpLeg_dum
      Spine_dum Spine
      LeftUpLeg_dum LeftUpLeg
      RightUpLeg_dum RightUpLeg
      Spine Spine_dum1 Spine_dum2 Spine_dum3
      Spine_dum1 Head
      Spine_dum2 LeftShoulder
      Spine_dum3 RightShoulder
      LeftShoulder LeftArm
      LeftArm LeftForeArm
      LeftForeArm LeftHand
      LeftHand LeftHand_dum1 LeftHand_dum2
      LeftHand_dum1 LeftHandThumb1
      RightShoulder RightArm
      RightArm RightForeArm
      RightForeArm RightHand
      RightHand RightHand_dum1 RightHand_dum2
      RightHand_dum1 RightHandThumb1
      LeftUpLeg LeftLeg
      LeftLeg LeftFoot
      LeftFoot LeftToeBase
      RightUpLeg RightLeg
      RightLeg RightFoot
      RightFoot RightToeBase
   end

# File created by Blade
# Date/Time:  Tue Apr 07 20:45:22 2015
# Frame Rate: 120.000 fps
#------------------------------------------------------
:FULLY-SPECIFIED
:DEGREES
34
root 1.051440 32.935073 -2.208417 7.475965 0.757243 -1.774905
Spine -11.335871 -6.611387 0.865284
Head 17.312867 -0.199631 -0.346657
LeftShoulder -20.650829 39.396031 21.434784
LeftArm 58.611805 -58.034620 -57.990652
LeftForeArm 9.370586 -0.000000 -2.793184
LeftHand 2.987974 -0.000000 3.600667
LeftHandThumb1 -26.253704 0.000000 33.147579
RightShoulder -7.859753 1.125197 -31.038365
RightArm 12.647379 15.035267 39.164476
RightForeArm -12.085812 -0.000000 1.709993
RightHand 2.181515 -0.000000 1.112978
RightHandThumb1 -24.326973 -0.000000 -32.862282
LeftUpLeg 0.537392 -3.654163 1.301645
LeftLeg -5.896409 -0.000000 0.000000
LeftFoot -3.292323 9.448929 -16.348440
LeftToeBase -9.876601 -0.000000 0.000000
RightUpLeg -1.528056 -0.891567 2.960503
RightLeg -3.434188 -0.000000 0.000000
RightFoot -5.326451 -6.746107 8.787663
RightToeBase -1.014384 -0.000000 0.000000
35
root 1.053768 32.935092 -2.207543 7.497015 0.773856 -1.766108
Spine -11.351788 -6.612967 0.860573
Head 17.269783 -0.209423 -0.312370
LeftShoulder -20.674584 39.391715 21.428046
LeftArm 58.586411 -58.031816 -57.920044
LeftForeArm 9.419074 -0.000000 -2.761536
LeftHand 2.897791 0.000000 3.605909
LeftHandThumb1 -26.253704 0.000000 33.147579
RightShoulder -7.890247 1.134978 -31.059600
RightArm 12.622857 15.020632 39.069749
RightForeArm -12.152813 -0.000000 1.730373
RightHand 2.127224 -0.000000 0.957590
RightHandThumb1 -24.326973 -0.000000 -32.862282
LeftUpLeg 0.519697 -3.654986 1.288423
LeftLeg -5.909214 -0.000000 0.000000
LeftFoot -3.296211 9.461344 -16.388053
LeftToeBase -9.867952 -0.000000 0.000000
RightUpLeg -1.541556 -0.929761 2.949186
RightLeg -3.443968 -0.000000 0.000000
RightFoot -5.329828 -6.718409 8.831489
RightToeBase -0.984295 -0.000000 0.000000
36
root 1.055439 32.934858 -2.206748 7.497524 0.803205 -1.765161
Spine -11.342267 -6.629568 0.871397
Head 17.226078 -0.221955 -0.316067
LeftShoulder -20.683605 39.368391 21.432221
LeftArm 58.505300 -58.024309 -57.831621
LeftForeArm 9.436879 -0.000000 -2.714552
LeftHand 2.794154 -0.000000 3.804152
LeftHandThumb1 -26.253704 0.000000 33.147579
RightShoulder -7.896924 1.134679 -31.062204
RightArm 12.582368 15.016722 38.934500
RightForeArm -12.187728 -0.000000 1.750167
RightHand 2.110829 -0.000000 0.903351
RightHandThumb1 -24.326973 -0.000000 -32.862282
LeftUpLeg 0.513816 -3.651658 1.293480
LeftLeg -5.896403 -0.000000 0.000000
LeftFoot -3.307986 9.387428 -16.402795
LeftToeBase -9.810054 -0.000000 0.000000
RightUpLeg -1.527304 -0.948556 2.948383
RightLeg -3.468870 -0.000000 0.000000
RightFoot -5.327269 -6.733467 8.828249
RightToeBase -0.975857 -0.000000 0.000000
37
root 1.059389 32.935217 -2.205910 7.514098 0.818665 -1.743901
Spine -11.352151 -6.628546 0.861451
Head 17.182913 -0.232840 -0.305975
LeftShoulder -20.698735 39.345337 21.428123
LeftArm 58.516504 -58.047170 -57.842026
LeftForeArm 9.439032 -0.000000 -2.675228
LeftHand 2.875679 -0.000000 3.841617
LeftHandThumb1 -26.253704 0.000000 33.147579
RightShoulder -7.926347 1.136146 -31.069299
RightArm 12.564414 15.034565 38.823442
RightForeArm -12.230162 -0.000000 1.767399
RightHand 2.125484 -0.000000 0.978812
RightHandThumb1 -24.326973 -0.000000 -32.862282
LeftUpLeg 0.498783 -3.643957 1.271809
LeftLeg -5.904477 -0.000000 0.000000
LeftFoot -3.286104 9.347968 -16.417162
LeftToeBase -9.787984 -0.000000 0.000000
RightUpLeg -1.545142 -1.010766 2.922245
RightLeg -3.459647 -0.000000 0.000000
RightFoot -5.335909 -6.677659 8.866988
RightToeBase -0.981424 -0.000000 0.000000
38
root 1.063584 32.935371 -2.204325 7.529561 0.840230 -1.708516
Spine -11.359332 -6.636245 0.826728
Head 17.130459 -0.248181 -0.271101
LeftShoulder -20.739465 39.360921 21.419219
LeftArm 58.628375 -58.070559 -57.956233
LeftForeArm 9.517498 -0.000000 -2.619293
LeftHand 2.967868 -0.000000 3.882796
LeftHandThumb1 -26.253704 0.000000 33.147579
RightShoulder -7.949735 1.203474 -31.066243
RightArm 12.478289 14.939092 38.674404
RightForeArm -12.244669 -0.000000 1.811118
RightHand 2.239409 0.000000 0.750166
RightHandThumb1 -24.326973 -0.000000 -32.862282
LeftUpLeg 0.487054 -3.644333 1.230095
LeftLeg -5.916474 -0.000000 0.000000
LeftFoot -3.259954 9.341860 -16.480131
LeftToeBase -9.777427 -0.000000 0.000000
RightUpLeg -1.547524 -1.056672 2.887670
RightLeg -3.487770 -0.000000 0.000000
RightFoot -5.349174 -6.682468 8.959364
RightToeBase -0.933229 -0.000000 0.000000
39
root 1.066715 32.935352 -2.204222 7.542545 0.868527 -1.686902
Spine -11.363519 -6.641924 0.807461
Head 17.086956 -0.260259 -0.240146
LeftShoulder -20.747145 39.348895 21.424640
LeftArm 58.646115 -58.077580 -57.979082
LeftForeArm 9.466290 0.000000 -2.570339
LeftHand 3.019370 -0.000000 3.866656
LeftHandThumb1 -26.253704 0.000000 33.147579
RightShoulder -7.987730 1.211991 -31.084124
RightArm 12.439522 14.912565 38.586842
RightForeArm -12.279681 -0.000000 1.890046
RightHand 2.074028 -0.000000 0.816432
RightHandThumb1 -24.326973 -0.000000 -32.862282
LeftUpLeg 0.471999 -3.633901 1.207390
LeftLeg -5.919769 -0.000000 0.000000
LeftFoot -3.230962 9.313008 -16.513854
LeftToeBase -9.774883 -0.000000 0.000000
RightUpLeg -1.558932 -1.094861 2.856324
RightLeg -3.475872 -0.000000 0.000000
RightFoot -5.359431 -6.632248 8.933155
RightToeBase -0.960159 -0.000000 0.000000
40
root 1.071860 32.936385 -2.202355 7.570945 0.880794 -1.644385
Spine -11.390630 -6.635168 0.777187
Head 17.048658 -0.277793 -0.240659
LeftShoulder -20.791375 39.372554 21.383213
LeftArm 58.722166 -58.078778 -58.046121
LeftForeArm 9.428712 0.000000 -2.493911
LeftHand 3.003684 -0.000000 3.953885
LeftHandThumb1 -26.253704 0.000000 33.147579
RightShoulder -8.032259 1.166886 -31.089879
RightArm 12.446799 14.960003 38.510553
RightForeArm -12.305980 0.000000 1.948521
RightHand 2.147895 0.000000 0.694315
RightHandThumb1 -24.326973 -0.000000 -32.862282
LeftUpLeg 0.447825 -3.561910 1.158217
LeftLeg -5.933819 -0.000000 0.000000
LeftFoot -3.177015 9.232207 -16.588671
LeftToeBase -9.708366 -0.000000 0.000000
RightUpLeg -1.572225 -1.147975 2.804582
RightLeg -3.494771 -0.000000 0.000000
RightFoot -5.355778 -6.588804 8.962704
RightToeBase -0.982503 -0.000000 0.000000
41
root 1.077083 32.937198 -2.201301 7.586017 0.902462 -1.596058
Spine -11.402507 -6.640069 0.739481
Head 17.013895 -0.285861 -0.238087
LeftShoulder -20.806805 39.381471 21.361778
LeftArm 58.793546 -58.098096 -58.148698
LeftForeArm 9.478044 0.000000 -2.411998
LeftHand 3.037204 -0.000000 4.006821
LeftHandThumb1 -26.253704 0.000000 33.147579
RightShoulder -8.056898 1.165693 -31.090709
RightArm 12.402447 14.971199 38.409597
RightForeArm -12.397511 -0.000000 2.019189
RightHand 2.168576 -0.000000 0.576238
RightHandThumb1 -24.326973 -0.000000 -32.862282
LeftUpLeg 0.441993 -3.528426 1.103423
LeftLeg -5.967159 -0.000000 0.000000
LeftFoot -3.081092 9.202628 -16.602200
LeftToeBase -9.752357 -0.000000 0.000000
RightUpLeg -1.574841 -1.192439 2.749341
RightLeg -3.513141 -0.000000 0.000000
RightFoot -5.359743 -6.560013 8.980101
RightToeBase -0.954168 -0.000000 0.000000
42
root 1.077919 32.938409 -2.202203 7.623616 0.937790 -1.567928
Spine -11.432046 -6.650827 0.704412
Head 16.968497 -0.305209 -0.189009
LeftShoulder -20.832958 39.382236 21.360760
LeftArm 58.810304 -58.054899 -58.178488
LeftForeArm 9.501955 -0.000000 -2.330165
LeftHand 3.081939 -0.000000 4.086276
LeftHandThumb1 -26.253704 0.000000 33.147579
RightShoulder -8.080187 1.248364 -31.087799
RightArm 12.295374 15.037302 38.338779
RightForeArm -12.618610 -0.000000 2.112472
RightHand 2.125820 -0.000000 0.626685
RightHandThumb1 -24.326973 -0.000000 -32.862282
LeftUpLeg 0.428101 -3.613849 1.081218
LeftLeg -6.042341 -0.000000 0.000000
LeftFoot -2.980444 9.298850 -16.640780
LeftToeBase -9.802189 -0.000000 0.000000
RightUpLeg -1.605968 -1.246518 2.724962
RightLeg -3.523789 -0.000000 0.000000
RightFoot -5.365686 -6.543660 9.022225
RightToeBase -0.965261 -0.000000 0.000000
43
root 1.083433 32.940718 -2.201184 7.647908 0.964980 -1.499744
Spine -11.454426 -6.667479 0.639438
Head 16.941695 -0.306858 -0.163132
LeftShoulder -20.843848 39.360932 21.352876
LeftArm 58.865918 -58.047074 -58.280911
LeftForeArm 9.615862 -0.000000 -2.252447
LeftHand 3.133038 -0.000000 4.166541
LeftHandThumb1 -26.253704 0.000000 33.147579
RightShoulder -8.107035 1.252312 -31.074864
RightArm 12.250201 14.991625 38.239411
RightForeArm -12.659916 -0.000000 2.182858
RightHand 2.231960 -0.000000 0.461230
RightHandThumb1 -24.326973 -0.000000 -32.862282
LeftUpLeg 0.415307 -3.558975 1.009877
LeftLeg -6.093238 -0.000000 0.000000
LeftFoot -2.815986 9.258908 -16.649153
LeftToeBase -9.880867 -0.000000 0.000000
RightUpLeg -1.629220 -1.337983 2.652833
RightLeg -3.515585 -0.000000 0.000000
RightFoot -5.373385 -6.486860 9.041766
RightToeBase -0.985070 -0.000000 0.000000
44
root 1.091221 32.944249 -2.201274 7.683652 1.001030 -1.397104
Spine -11.488853 -6.679391 0.539120
Head 16.922536 -0.340802 -0.145909
LeftShoulder -20.853738 39.374143 21.316175
LeftArm 58.856776 -57.998125 -58.265108
LeftForeArm 9.751319 0.000000 -2.170042
LeftHand 3.079085 0.000000 4.290853
LeftHandThumb1 -26.253704 0.000000 33.147579
RightShoulder -8.141998 1.250303 -31.044179
RightArm 12.197187 14.938578 38.121994
RightForeArm -12.747549 -0.000000 2.250453
RightHand 2.305916 -0.000000 0.272973
RightHandThumb1 -24.326973 -0.000000 -32.862282
LeftUpLeg 0.386465 -3.472174 0.897692
LeftLeg -6.149291 -0.000000 0.000000
LeftFoot -2.542835 9.198553 -16.573026
LeftToeBase -10.083329 -0.000000 0.000000
RightUpLeg -1.656426 -1.420951 2.539614
RightLeg -3.524082 -0.000000 0.000000
RightFoot -5.387238 -6.431822 9.092654
RightToeBase -0.976530 -0.000000 0.000000
45
root 1.099962 32.948676 -2.201547 7.724744 1.035782 -1.264862
Spine -11.534500 -6.719575 0.405020
Head 16.919250 -0.332201 -0.106332
LeftShoulder -20.876894 39.417384 21.287721
LeftArm 58.770831 -57.921008 -58.218986
LeftForeArm 9.703072 -0.000000 -2.024213
LeftHand 3.085151 0.000000 4.377595
LeftHandThumb1 -26.253704 0.000000 33.147579
RightShoulder -8.164406 1.190198 -31.024704
RightArm 12.202839 14.897764 38.083059
RightForeArm -12.725702 -0.000000 2.338800
RightHand 2.294551 -0.000000 0.243820
RightHandThumb1 -24.326973 -0.000000 -32.862282
LeftUpLeg 0.354604 -3.373108 0.751709
LeftLeg -6.220649 -0.000000 0.000000
LeftFoot -2.190857 9.159835 -16.429665
LeftToeBase -10.469283 -0.000000 0.000000
RightUpLeg -1.672831 -1.481421 2.388887
RightLeg -3.563914 -0.000000 0.000000
RightFoot -5.392674 -6.376995 9.216601
RightToeBase -0.936127 -0.000000 0.000000
